REM DIRINDEX 1\2\4\18,1\2\4\19,1\2\5\20,1\2\5\21,1\2\6\22,1\2\6\23,1\2\7\24,1\2\8\25,1\2\9\26,1\2\10\27,1\2\10\28,1\3\11\29,1\3\11\30,1\3\11\31,1\3\11\32,1\3\12\33,1\3\12\34,1\3\12\35,1\3\12\36,1\3\13\37,1\3\13\38,1\3\13\39,1\3\13\40,1\3\14\41,1\3\14\42,1\3\15\43,1\3\15\44,1\3\16\45,1\3\16\46,1\3\17\47,1\3\17\48,1\3\17\49,1\3\17\50
REM DIRNAME cjc135,folder01,folder02,folder03,folder04,folder05,folder06,folder07,folder08,folder09,folder10,folder11,folder12,folder13,folder14,folder15,folder16,folder17,folder18,folder19,folder20,folder21,folder22,folder23,folder24,folder25,folder26,folder27,folder28,folder29,folder30,folder31,folder32,folder33,folder34,folder35,folder36,folder37,folder38,folder39,folder40,folder41,folder42,folder43,folder44,folder45,folder46,folder47,folder48,folder49
TITLE ""
FILE "11.mp3" MP3
  TRACK 01 AUDIO
    TITLE "0:"
    INDEX 01 00:00:00
  TRACK 02 AUDIO
    TITLE "25:cjc135_1603"
    INDEX 01 00:00:15
  TRACK 03 AUDIO
    TITLE "0:"
    INDEX 01 00:01:36
  TRACK 04 AUDIO
    TITLE "25:cjc135_1604"
    INDEX 01 00:02:10
  TRACK 05 AUDIO
    TITLE "0:"
    INDEX 01 00:03:35
  TRACK 06 AUDIO
    TITLE "25:cjc135_1605"
    INDEX 01 00:04:09
  TRACK 07 AUDIO
    TITLE "0:"
    INDEX 01 00:05:28
  TRACK 08 AUDIO
    TITLE "25:cjc135_1606"
    INDEX 01 00:06:04
  TRACK 09 AUDIO
    TITLE "0:"
    INDEX 01 00:07:39
  TRACK 10 AUDIO
    TITLE "25:cjc135_1607"
    INDEX 01 00:08:15
  TRACK 11 AUDIO
    TITLE "0:"
    INDEX 01 00:09:59
  TRACK 12 AUDIO
    TITLE "25:cjc135_1608"
    INDEX 01 00:10:31
  TRACK 13 AUDIO
    TITLE "0:"
    INDEX 01 00:11:74
  TRACK 14 AUDIO
    TITLE "25:cjc135_1609"
    INDEX 01 00:12:52
  TRACK 15 AUDIO
    TITLE "0:"
    INDEX 01 00:14:00
  TRACK 16 AUDIO
    TITLE "25:cjc135_1610"
    INDEX 01 00:14:53
  TRACK 17 AUDIO
    TITLE "0:"
    INDEX 01 00:16:14
  TRACK 18 AUDIO
    TITLE "25:cjc135_1611"
    INDEX 01 00:16:65
  TRACK 19 AUDIO
    TITLE "0:"
    INDEX 01 00:18:31
  TRACK 20 AUDIO
    TITLE "25:cjc135_1612"
    INDEX 01 00:19:07
  TRACK 21 AUDIO
    TITLE "0:"
    INDEX 01 00:20:37
  TRACK 22 AUDIO
    TITLE "25:cjc135_1613"
    INDEX 01 00:21:11
  TRACK 23 AUDIO
    TITLE "0:"
    INDEX 01 00:22:23
  TRACK 24 AUDIO
    TITLE "25:cjc135_1614"
    INDEX 01 00:23:01
  TRACK 25 AUDIO
    TITLE "0:"
    INDEX 01 00:24:12
  TRACK 26 AUDIO
    TITLE "25:cjc135_1615"
    INDEX 01 00:24:61
  TRACK 27 AUDIO
    TITLE "0:"
    INDEX 01 00:26:01
  TRACK 28 AUDIO
    TITLE "25:cjc135_1616"
    INDEX 01 00:26:52
  TRACK 29 AUDIO
    TITLE "0:"
    INDEX 01 00:27:57
  TRACK 30 AUDIO
    TITLE "25:cjc135_1617"
    INDEX 01 00:28:33
  TRACK 31 AUDIO
    TITLE "0:"
    INDEX 01 00:29:42
  TRACK 32 AUDIO
    TITLE "25:cjc135_1618"
    INDEX 01 00:30:14
  TRACK 33 AUDIO
    TITLE "0:"
    INDEX 01 00:31:31
  TRACK 34 AUDIO
    TITLE "25:cjc135_1619"
    INDEX 01 00:32:11
  TRACK 35 AUDIO
    TITLE "0:"
    INDEX 01 00:33:05
  TRACK 36 AUDIO
    TITLE "25:cjc135_1620"
    INDEX 01 00:33:54
  TRACK 37 AUDIO
    TITLE "0:"
    INDEX 01 00:34:63
  TRACK 38 AUDIO
    TITLE "25:cjc135_1621"
    INDEX 01 00:35:39
  TRACK 39 AUDIO
    TITLE "0:"
    INDEX 01 00:36:36
  TRACK 40 AUDIO
    TITLE "25:cjc135_1622"
    INDEX 01 00:37:10
  TRACK 41 AUDIO
    TITLE "0:"
    INDEX 01 00:38:39
  TRACK 42 AUDIO
    TITLE "25:cjc135_1623"
    INDEX 01 00:39:15
  TRACK 43 AUDIO
    TITLE "0:"
    INDEX 01 00:40:21
  TRACK 44 AUDIO
    TITLE "25:cjc135_1624"
    INDEX 01 00:40:72
  TRACK 45 AUDIO
    TITLE "0:"
    INDEX 01 00:42:08
  TRACK 46 AUDIO
    TITLE "25:cjc135_1625"
    INDEX 01 00:42:61
  TRACK 47 AUDIO
    TITLE "0:"
    INDEX 01 00:43:74
  TRACK 48 AUDIO
    TITLE "25:cjc135_1626"
    INDEX 01 00:44:48
  TRACK 49 AUDIO
    TITLE "0:"
    INDEX 01 00:45:65
  TRACK 50 AUDIO
    TITLE "25:cjc135_1627"
    INDEX 01 00:46:39
  TRACK 51 AUDIO
    TITLE "0:"
    INDEX 01 00:47:60
  TRACK 52 AUDIO
    TITLE "25:cjc135_1628"
    INDEX 01 00:48:34
  TRACK 53 AUDIO
    TITLE "0:"
    INDEX 01 00:49:47
  TRACK 54 AUDIO
    TITLE "25:cjc135_1629"
    INDEX 01 00:50:23
  TRACK 55 AUDIO
    TITLE "0:"
    INDEX 01 00:51:36
  TRACK 56 AUDIO
    TITLE "25:cjc135_1630"
    INDEX 01 00:52:10
  TRACK 57 AUDIO
    TITLE "0:"
    INDEX 01 00:53:27
  TRACK 58 AUDIO
    TITLE "25:cjc135_1631"
    INDEX 01 00:54:03
  TRACK 59 AUDIO
    TITLE "0:"
    INDEX 01 00:55:14
  TRACK 60 AUDIO
    TITLE "25:cjc135_1632"
    INDEX 01 00:55:65
  TRACK 61 AUDIO
    TITLE "0:"
    INDEX 01 00:57:13
  TRACK 62 AUDIO
    TITLE "25:cjc135_1633"
    INDEX 01 00:57:62
  TRACK 63 AUDIO
    TITLE "0:"
    INDEX 01 00:59:12
  TRACK 64 AUDIO
    TITLE "25:cjc135_1634"
    INDEX 01 00:59:59
  TRACK 65 AUDIO
    TITLE "0:"
    INDEX 01 01:01:05
  TRACK 66 AUDIO
    TITLE "25:cjc135_1635"
    INDEX 01 01:01:54
  TRACK 67 AUDIO
    TITLE "0:"
    INDEX 01 01:02:63
  TRACK 68 AUDIO
    TITLE "25:cjc135_1636"
    INDEX 01 01:03:39
  TRACK 69 AUDIO
    TITLE "0:"
    INDEX 01 01:05:01
  TRACK 70 AUDIO
    TITLE "25:cjc135_1637"
    INDEX 01 01:05:50
  TRACK 71 AUDIO
    TITLE "0:"
    INDEX 01 01:06:59
  TRACK 72 AUDIO
    TITLE "25:cjc135_1638"
    INDEX 01 01:07:35
  TRACK 73 AUDIO
    TITLE "0:"
    INDEX 01 01:08:52
  TRACK 74 AUDIO
    TITLE "25:cjc135_1639"
    INDEX 01 01:09:28
  TRACK 75 AUDIO
    TITLE "0:"
    INDEX 01 01:10:43
  TRACK 76 AUDIO
    TITLE "25:cjc135_1640"
    INDEX 01 01:11:17
  TRACK 77 AUDIO
    TITLE "0:"
    INDEX 01 01:12:26
  TRACK 78 AUDIO
    TITLE "25:cjc135_1641"
    INDEX 01 01:13:02
  TRACK 79 AUDIO
    TITLE "0:"
    INDEX 01 01:14:21
  TRACK 80 AUDIO
    TITLE "25:cjc135_1642"
    INDEX 01 01:14:70
  TRACK 81 AUDIO
    TITLE "0:"
    INDEX 01 01:15:74
  TRACK 82 AUDIO
    TITLE "25:cjc135_1643"
    INDEX 01 01:16:50
  TRACK 83 AUDIO
    TITLE "0:"
    INDEX 01 01:17:73
  TRACK 84 AUDIO
    TITLE "25:cjc135_1644"
    INDEX 01 01:18:47
  TRACK 85 AUDIO
    TITLE "0:"
    INDEX 01 01:19:66
  TRACK 86 AUDIO
    TITLE "25:cjc135_1645"
    INDEX 01 01:20:42
  TRACK 87 AUDIO
    TITLE "0:"
    INDEX 01 01:21:59
  TRACK 88 AUDIO
    TITLE "25:cjc135_1646"
    INDEX 01 01:22:35
  TRACK 89 AUDIO
    TITLE "0:"
    INDEX 01 01:23:63
  TRACK 90 AUDIO
    TITLE "25:cjc135_1647"
    INDEX 01 01:24:37
  TRACK 91 AUDIO
    TITLE "0:"
    INDEX 01 01:25:51
  TRACK 92 AUDIO
    TITLE "25:cjc135_1648"
    INDEX 01 01:26:27
  TRACK 93 AUDIO
    TITLE "0:"
    INDEX 01 01:27:44
  TRACK 94 AUDIO
    TITLE "25:cjc135_1649"
    INDEX 01 01:28:20
  TRACK 95 AUDIO
    TITLE "0:"
    INDEX 01 01:29:33
